<?xml version="1.0" encoding="UTF-8"?>
<svg id="Layer_1" data-name="Layer 1" xmlns="http://www.w3.org/2000/svg" viewBox="0 0 57.82 298.91">
  <defs>
    <style>
      .cls-1, .cls-2 {
        stroke-width: 0px;
      }
    </style>
  </defs>
  <path class="cls-1" d="m24,0c3.23,2.13,3.63,3.27,2.83,7.15-.25,1.23-.22,2.53-.21,3.79.04,9.44.14,18.88.13,28.32,0,1.52-.19,3.1-.67,4.53-.66,1.98-2.31,3.42-4.34,2.94-1.54-.37-3-1.7-4.14-2.94-.63-.69-.71-2.06-.69-3.12.14-11.96.35-23.93.53-35.89.03-2.35,1.53-3.64,3.29-4.78h3.27Z"/>
  <path class="cls-1" d="m24.61,280.63c.13-1.16.44-2.33.36-3.47-.42-6.34-1.02-12.68-1.4-19.02-.33-5.52-.51-11.05-.61-16.58-.05-2.7,2.28-4.84,4.9-4.81,2.74.03,4.75,2.34,4.87,5.17.43,9.86.96,19.72,1.47,29.58.09,1.79.32,3.56.55,6.14,1.72-2.18,3-3.76,4.22-5.37,2.85-3.75,5.69-7.51,8.49-11.3,1.64-2.22,4.9-2.87,7.3-1.37,2.27,1.41,3.1,4.21,1.61,6.67-1.35,2.24-3.12,4.23-4.7,6.34-5.44,7.27-10.95,14.49-16.31,21.82-3.02,4.13-6.9,4.73-10.51.99-5.54-5.75-10.81-11.76-16.26-17.61-1.84-1.97-3.76-3.89-5.82-5.63-2.7-2.29-2.42-6.04.73-7.64,3.42-1.74,6.82-.18,9,2.87,3.4,4.75,7.43,9.06,11.2,13.56.29-.11.58-.22.87-.33Z"/>
  <path class="cls-1" d="m24.72,72.6c.41,8.77.82,17.54,1.23,26.31.1,2.26.29,4.53.24,6.8-.06,2.87-1.66,4.76-4.01,5.04-2.41.29-4.43-1.06-5.3-3.72-.36-1.1-.5-2.3-.53-3.47-.24-9.34-.42-18.68-.65-28.02-.02-.9-.52-1.89-.27-2.66.55-1.71,1.04-3.88,2.31-4.78,1.15-.81,3.62-.73,4.95-.01,1.33.72,1.97,2.71,2.91,4.15-.29.12-.58.24-.87.37Z"/>
  <path class="cls-1" d="m21.8,194.8c0-1.72-.14-3.46.03-5.16.25-2.43,2.1-4.06,4.32-4.08,2.23-.02,4.18,1.58,4.39,4.01.78,9.2,1.44,18.42,2.11,27.63.06.79-.18,1.62-.37,2.4-.55,2.3-2.01,3.68-4.39,3.71-2.38.03-4.04-1.29-4.45-3.6-.43-2.39-.51-4.85-.66-7.28-.37-5.88-.7-11.76-1.05-17.64.03,0,.05,0,.08,0Z"/>
  <path class="cls-1" d="m18.47,146.66c.15-3.25.09-6.52.52-9.73.39-2.96,2.57-4.56,5-4.25,2.38.31,3.68,2.22,3.87,5.11.5,7.76,1.12,15.52,1.67,23.27.07.99.16,2,.03,2.97-.31,2.32-1.59,3.85-4,4.1-2.4.25-4.29-.91-4.74-3.17-.82-4.06-1.23-8.2-1.71-12.32-.23-1.98-.21-3.98-.3-5.97-.11,0-.22,0-.34-.01Z"/>
</svg>