<?xml version="1.0" encoding="UTF-8"?>
<svg id="Layer_1" data-name="Layer 1" xmlns="http://www.w3.org/2000/svg" viewBox="0 0 200 200">
  <defs>
    <style>
      .cls-1, .cls-2 {
        stroke-width: 0px;
      }
    </style>
  </defs>
  <path class="cls-1" d="m130.05,106.83c-4.58.23-9.16.4-13.74.71-18.28,1.24-36.57,2.39-54.84,3.87-5.56.45-11.11,1.54-16.54,2.88-7.26,1.8-15.11-1.33-16.14-6.92-1.1-5.96,3.43-10.53,12.22-11.37,19.73-1.89,39.49-3.44,59.24-5.15,6.22-.54,12.42-1.16,18.63-1.75.1-.45.2-.9.3-1.35-6.24-2.48-12.47-4.99-18.73-7.43-3.72-1.45-7.56-2.61-11.19-4.23-5.45-2.43-7.71-6.66-6.51-11.47,1.14-4.58,5.45-7.53,11.28-6.99,5.29.49,10.49,1.84,15.78,2.49,16.69,2.05,33.4,3.96,50.1,5.92,1.98.23,4,.31,5.94.73,9.4,2.03,13.39,10.18,7.96,18.08-6.2,9.02-13.33,17.44-20.44,25.79-7.45,8.75-15.36,17.09-23.03,25.66-1.1,1.22-2.01,2.64-2.85,4.06-3.23,5.47-7.94,6.99-12.97,4.09-5.31-3.06-6.84-8.91-3.33-14.14,1.93-2.88,4.52-5.32,6.81-7.95,4.15-4.75,8.31-9.5,12.47-14.25-.14-.43-.29-.86-.43-1.29Z"/>
</svg>