<?xml version="1.0" encoding="UTF-8"?>
<svg id="Layer_1" data-name="Layer 1" xmlns="http://www.w3.org/2000/svg" viewBox="0 0 200 200">
  <defs>
    <style>
      .cls-1, .cls-2 {
        stroke-width: 0px;
      }
    </style>
  </defs>
  <path class="cls-1" d="m88.44,106.6c0-2.58.07-4.34-.01-6.08-.87-18.29-1.8-36.58-2.6-54.87-.11-2.62-.38-5.72.83-7.77,1.33-2.26,4.19-4.79,6.55-4.95,2.34-.17,6.26,1.93,7.04,3.97,1.65,4.28,1.77,9.17,2.35,13.84.18,1.44-.37,2.97-.29,4.43.85,14.62,1.76,29.24,2.67,43.86.04.63.21,1.25.51,2.96,2.19-2.49,3.87-4.37,5.51-6.29,2.17-2.53,4.15-5.23,6.48-7.59,4.03-4.09,8.96-4.58,12.48-1.5,3.57,3.13,3.93,8.1.51,12.6-4.63,6.09-9.58,11.94-14.28,17.98-2.76,3.54-5.16,7.36-7.98,10.85-4.53,5.59-8.66,6.07-14.83,2.46-9.47-5.54-19.09-10.82-28.54-16.39-5.84-3.44-7.67-8.3-5.23-12.77,2.34-4.28,8.09-5.65,13.71-2.91,4.86,2.37,9.54,5.12,15.14,8.16Z"/>
  <path class="cls-1" d="m93.86,161.05c-8.49-.43-16.98-.8-25.46-1.31-8.17-.49-12.26-3.77-11.75-9.21.49-5.15,5.04-7.94,12.8-7.19,19.79,1.91,39.55,2.57,59.37.29,6.25-.72,10.23,2.3,10.61,7.18.38,4.88-3.03,8.71-9.14,9.16-12.11.89-24.25,1.35-36.38,1.98-.01-.3-.03-.59-.04-.89Z"/>
</svg>