<?xml version="1.0" encoding="UTF-8"?>
<svg id="Layer_1" data-name="Layer 1" xmlns="http://www.w3.org/2000/svg" viewBox="0 0 200 200">
  <defs>
    <style>
      .cls-1, .cls-2 {
        stroke-width: 0px;
      }
      .cls-2 {
        fill: #fff;
      }
    </style>
  </defs>
  <path class="cls-2" d="m0,200C0,133.33,0,66.67,0,0c66.67,0,133.33,0,200,0,0,66.67,0,133.33,0,200-66.67,0-133.33,0-200,0Zm134.12-33.51c1.81,1.11,3.53,2.97,5.44,3.2,12.54,1.49,25.11,2.89,37.71,3.74,5.36.36,8.26-2.58,8.32-6.59.06-3.98-2.59-6.29-8.12-6.93-8.6-1-17.21-1.84-25.79-3-1.49-.2-3.82-1.43-4.04-2.52-.77-3.99-.82-8.13-1.19-12.9,3.79,0,7.2.57,10.33-.14,4.42-1,8.92-2.46,12.78-4.75,1.5-.89,2.41-5.09,1.59-6.87-.81-1.77-4.06-2.59-6.38-3.42-.92-.33-2.22.54-3.37.67-4.44.49-8.88,1.07-13.33,1.24-1.1.04-3.15-1.24-3.24-2.08-.8-6.88-1.23-13.8-1.8-20.97,7.25,1.43,13.89,2.86,20.58,4.01,5.77.99,11.64.66,15.92-3.65,1.71-1.72,2.69-5.69,1.89-7.86-.61-1.67-4.85-3.45-6.9-2.93-10.71,2.74-20.42-.92-30.24-3.91-1.31-.4-2.71-2.37-3-3.83-.82-4.06-.95-8.26-1.58-12.36-.53-3.41.51-4.52,4.12-4.9,5.38-.57,10.82-1.7,15.9-3.51,4.99-1.78,6.71-5.69,5.34-9.3-1.33-3.5-4.92-4.22-10.39-2.76-4.46,1.19-9.06,1.94-13.64,2.44-1.09.12-3.22-1.38-3.43-2.42-1.14-5.66-1.83-11.4-2.77-17.73,5.97,0,11.46.48,16.83-.14,5.38-.62,10.76-1.95,15.88-3.72,3.24-1.12,4.74-4.33,3.55-7.85-1.22-3.62-4.23-4.42-7.71-3.81-2.13.38-4.22,1.06-6.36,1.33-9.56,1.2-19.01,2.58-28.12-2.77-5.52-3.24-12.73-.52-14.64,4.14-1.2,2.93-2.83,5.88-4.96,8.18-4.29,4.64-9,8.9-13.63,13.22-2.09,1.95-4.42,3.66-6.64,5.48-.5-.23-1-.47-1.5-.7.45-3.43.04-7.32,1.55-10.2,2.62-5.02,2.87-6.92-1.1-10.88-7.4-7.38-16.12-12.11-26.39-14.32-13.27-2.85-26.63,3.22-32.78,15.32-3.43,6.74-2.78,13.65,2.7,18.8,3.96,3.72,8.81,6.49,13.18,9.8,8.21,6.2,16.6,12.19,24.43,18.84,3.73,3.18,3.01,5.72-1.61,7.33-9.91,3.47-19.81,3.76-29.25-1.74-4.89-2.85-10.21-.56-10.74,5.09-.25,2.66.72,5.43.91,6.67-2.39,4.34-5.03,7.52-5.9,11.12-1.31,5.42,1.91,9.68,6.07,12.82,5.84,4.42,11.99,8.41,17.89,12.76,7.18,5.3,13.46,11.47,17.06,19.85,1.81,4.21,2.19,8.49-1.07,12.22-3.33,3.8-7.61,5.43-12.59,4.11-4.01-1.06-7.92-2.5-11.85-3.86-3.05-1.05-5.72-2.21-5.85-6.37-.05-1.5-2.23-4-3.67-4.19-4.54-.59-9.3-.88-13.74-.05-1.84.34-3.86,3.62-4.47,5.91-1.19,4.48,1.41,7.88,5.27,9.73,8.99,4.29,18.02,8.57,27.3,12.18,5.37,2.09,11.32,3.53,16.97.51,5.87-3.14,11.54-6.64,18.1-10.45,4.78,2.32,8.77,2.31,10.71-1.93,3.28-7.19,6.45-14.59,3.55-22.99-.95-2.77-.47-6.03-.64-9.06,2.56.65,4.04,1.65,5.22,2.92,7.58,8.18,15.17,16.37,22.62,24.67,5.62,6.26,8.03,6.7,14.69,2.07Z"/>
  <path class="cls-1" d="m134.12,166.49c-6.67,4.62-9.07,4.19-14.69-2.07-7.45-8.3-15.04-16.49-22.62-24.67-1.18-1.28-2.66-2.28-5.22-2.92.17,3.03-.31,6.3.64,9.06,2.89,8.41-.27,15.8-3.55,22.99-1.94,4.25-5.93,4.26-10.71,1.93-6.56,3.81-12.23,7.31-18.1,10.45-5.64,3.02-11.6,1.57-16.97-.51-9.28-3.6-18.31-7.88-27.3-12.18-3.87-1.85-6.46-5.25-5.27-9.73.61-2.29,2.63-5.56,4.47-5.91,4.44-.83,9.21-.54,13.74.05,1.45.19,3.62,2.69,3.67,4.19.13,4.16,2.81,5.32,5.85,6.37,3.92,1.36,7.84,2.8,11.85,3.86,4.97,1.32,9.26-.31,12.59-4.11,3.27-3.73,2.88-8.01,1.07-12.22-3.6-8.38-9.88-14.55-17.06-19.85-5.89-4.35-12.05-8.34-17.89-12.76-4.16-3.15-7.38-7.4-6.07-12.82.87-3.61,3.52-6.78,5.9-11.12-.19-1.24-1.16-4.01-.91-6.67.53-5.65,5.85-7.94,10.74-5.09,9.43,5.5,19.34,5.21,29.25,1.74,4.62-1.62,5.34-4.16,1.61-7.33-7.82-6.66-16.22-12.64-24.43-18.84-4.37-3.3-9.22-6.07-13.18-9.8-5.48-5.15-6.13-12.06-2.7-18.8,6.15-12.1,19.51-18.17,32.78-15.32,10.26,2.21,18.99,6.94,26.39,14.32,3.97,3.96,3.72,5.86,1.1,10.88-1.51,2.88-1.1,6.77-1.55,10.2.5.23,1,.47,1.5.7,2.22-1.82,4.54-3.52,6.64-5.48,4.63-4.31,9.34-8.57,13.63-13.22,2.13-2.3,3.76-5.25,4.96-8.18,1.91-4.66,9.13-7.38,14.64-4.14,9.11,5.35,18.56,3.97,28.12,2.77,2.14-.27,4.23-.95,6.36-1.33,3.47-.61,6.49.19,7.71,3.81,1.19,3.52-.31,6.73-3.55,7.85-5.12,1.77-10.5,3.1-15.88,3.72-5.37.62-10.86.14-16.83.14.94,6.32,1.63,12.07,2.77,17.73.21,1.04,2.34,2.54,3.43,2.42,4.59-.5,9.19-1.25,13.64-2.44,5.47-1.46,9.06-.74,10.39,2.76,1.37,3.61-.36,7.52-5.34,9.3-5.08,1.82-10.53,2.94-15.9,3.51-3.61.39-4.65,1.5-4.12,4.9.64,4.11.77,8.3,1.58,12.36.29,1.46,1.7,3.44,3,3.83,9.82,2.98,19.53,6.64,30.24,3.91,2.05-.52,6.29,1.26,6.9,2.93.79,2.18-.19,6.14-1.89,7.86-4.29,4.31-10.15,4.64-15.92,3.65-6.69-1.15-13.33-2.59-20.58-4.01.57,7.17,1,14.09,1.8,20.97.1.85,2.14,2.12,3.24,2.08,4.45-.17,8.89-.74,13.33-1.24,1.15-.13,2.45-1,3.37-.67,2.32.83,5.57,1.65,6.38,3.42.82,1.78-.1,5.98-1.59,6.87-3.85,2.29-8.35,3.74-12.78,4.75-3.12.71-6.54.14-10.33.14.37,4.77.42,8.91,1.19,12.9.21,1.09,2.55,2.32,4.04,2.52,8.57,1.16,17.19,2,25.79,3,5.53.64,8.18,2.95,8.12,6.93-.06,4-2.96,6.95-8.32,6.59-12.6-.85-25.17-2.25-37.71-3.74-1.91-.23-3.63-2.09-5.45-3.2Zm-1.12-9.66c-1.68-20.53-3.26-39.88-4.79-58.63-10.34,7.45-20.44,14.72-30.34,21.85,11.74,12.3,22.93,24.01,35.12,36.78Zm-11.12-117.94c-7.83,7.39-14.53,13.57-20.96,20.02-.71.71-.47,3.48.34,4.4,8.62,9.75,17.45,19.33,26.93,29.73-2.13-18.23-4.14-35.47-6.31-54.14Zm-46.22,22.72c-.65-7.14-1.21-13.54-1.83-19.94-.92-9.5-1.33-10.01-10.45-12.83-1.74-.54-3.54-.93-5.33-1.27-6.16-1.17-11.03,1.07-15.02,5.71-2.62,3.05-2.41,5.56,1.06,7.79,10.15,6.56,20.27,13.17,31.57,20.53Zm-5.04,37.73c2.67,3.98,4.94,7.61,1.08,11.25-3.63,3.43-6.85.55-10.47-.69-5.42-1.86-11.17-2.88-16.86-3.79-1.98-.32-4.18.76-7.8,1.51,15.93,10.4,30.9,19.37,40.16,34.76v-45.73c-2.31,1.01-3.91,1.72-6.11,2.69Zm20.42-26.39c-.44.17-.89.34-1.33.51.56,10.6,1.13,21.21,1.76,32.95,6.59-4.69,12.14-8.64,18.01-12.82-6.45-7.23-12.44-13.94-18.43-20.65Z"/>
  <path class="cls-2" d="m133,156.83c-12.19-12.77-23.38-24.48-35.12-36.78,9.9-7.13,20-14.4,30.34-21.85,1.53,18.75,3.11,38.1,4.79,58.63Z"/>
  <path class="cls-2" d="m121.88,38.89c2.18,18.67,4.19,35.92,6.31,54.14-9.48-10.4-18.31-19.97-26.93-29.73-.81-.92-1.05-3.69-.34-4.4,6.43-6.44,13.13-12.62,20.96-20.02Z"/>
  <path class="cls-2" d="m75.66,61.61c-11.3-7.35-21.42-13.97-31.57-20.53-3.47-2.24-3.67-4.75-1.06-7.79,3.99-4.64,8.85-6.88,15.02-5.71,1.79.34,3.59.73,5.33,1.27,9.12,2.82,9.52,3.33,10.45,12.83.62,6.39,1.18,12.79,1.83,19.94Z"/>
  <path class="cls-2" d="m70.62,99.34c2.2-.97,3.81-1.68,6.11-2.69v45.73c-9.25-15.38-24.23-24.36-40.16-34.76,3.62-.76,5.82-1.83,7.8-1.51,5.69.91,11.44,1.93,16.86,3.79,3.62,1.24,6.83,4.12,10.47.69,3.86-3.64,1.59-7.27-1.08-11.25Z"/>
  <path class="cls-2" d="m91.04,72.95c5.99,6.71,11.98,13.42,18.43,20.65-5.87,4.18-11.42,8.13-18.01,12.82-.63-11.75-1.19-22.35-1.76-32.95.44-.17.89-.34,1.33-.51Z"/>
</svg>