<?xml version="1.0" encoding="UTF-8"?>
<svg id="Layer_1" data-name="Layer 1" xmlns="http://www.w3.org/2000/svg" viewBox="0 0 69.27 254.73">
  <defs>
    <style>
      .cls-1, .cls-2 {
        stroke-width: 0px;
      }
    </style>
  </defs>
  <path class="cls-1" d="m27.71,230.17c0-4.9.1-9.4-.03-13.89-.15-5.27-.49-10.52-.75-15.79-.82-16.6-1.88-33.2-2.41-49.81-.59-18.44-.71-36.89-.99-55.33-.37-24.53-.73-49.07-1.01-73.6-.06-5.17.14-10.35.35-15.53.1-2.52,1.55-4.28,3.97-4.98,2.12-.62,4.22-.04,5.23,1.89.71,1.36.7,3.2.64,4.81-.07,1.57-.94,3.12-.91,4.66.58,27.34,1.28,54.69,1.87,82.03.49,22.53.61,45.07,1.41,67.59.79,22.42,2.23,44.81,3.39,67.41.33-.2.73-.35.99-.62,5.21-5.44,10.43-10.88,15.59-16.38.77-.82,1.39-1.87,1.78-2.92.87-2.39,2.51-3.74,4.98-4.06,2.21-.3,4.22.23,5.53,2.16,1.44,2.12,1.21,4.35-.17,6.38-.96,1.41-2.1,2.75-3.33,3.94-9.68,9.37-18.87,19.1-26.32,30.45-5.16,7.86-9.8,7.26-14.64-.67-6.2-10.14-12.84-20.02-19.29-30.01-.64-.99-1.36-1.95-1.88-3-1.35-2.69-.87-5.36,1.15-6.9,2.1-1.6,5-1.37,7.09,1.01,5.21,5.94,10.26,12.02,15.36,18.05.79.93,1.51,1.92,2.43,3.1Z"/>
</svg>