<?xml version="1.0" encoding="UTF-8"?>
<svg id="Layer_1" data-name="Layer 1" xmlns="http://www.w3.org/2000/svg" viewBox="0 0 200 200">
  <defs>
    <style>
      .cls-1, .cls-2 {
        stroke-width: 0px;
      }
    </style>
  </defs>
  <path class="cls-1" d="m107.54,75.72c-9.58,2.86-17.95,5.36-26.31,7.87-7.84,2.35-12.23,1.19-14.18-3.76-2.07-5.26.41-10.98,7.63-13.65,15.11-5.59,30.52-10.37,45.84-15.41,3.63-1.2,7.35-2.14,11.05-3.13,10.05-2.67,15.2,2.2,13.12,12.52-1.94,9.62-4.11,19.2-6.09,28.82-.87,4.24-1.48,8.53-2.32,12.78-.38,1.95-.84,3.93-1.6,5.75-1.72,4.15-5.68,6.3-9.65,5.16-4.25-1.21-6.44-4.32-5.98-8.64.61-5.76,1.75-11.46,1.9-17.71-2.15,2.64-4.27,5.29-6.44,7.91-11.23,13.62-22.56,27.16-33.64,40.9-2.32,2.88-4.01,6.35-5.59,9.73-1.78,3.8-8.67,8.96-12.79,8.26-2.33-.4-5.77-2.06-6.25-3.82-.76-2.83-.49-6.92,1.13-9.22,6.14-8.69,12.98-16.9,19.6-25.25,9.1-11.48,18.25-22.93,27.36-34.41.9-1.13,1.64-2.39,3.22-4.71Z"/>
</svg>